<svg width="32" height="32" viewBox="0 0 32 32" fill="none" xmlns="http://www.w3.org/2000/svg">
<path d="M11.5875 27H6C5.73478 27 5.48043 26.8946 5.29289 26.7071C5.10536 26.5196 5 26.2652 5 26V20.4125C4.99954 20.2826 5.0247 20.154 5.07404 20.0339C5.12337 19.9137 5.19591 19.8045 5.2875 19.7125L20.2875 4.7125C20.3805 4.61801 20.4915 4.54298 20.6138 4.49176C20.7361 4.44055 20.8674 4.41417 21 4.41417C21.1326 4.41417 21.2639 4.44055 21.3862 4.49176C21.5085 4.54298 21.6194 4.61801 21.7125 4.7125L27.2875 10.2875C27.382 10.3805 27.457 10.4915 27.5082 10.6138C27.5595 10.7361 27.5858 10.8674 27.5858 11C27.5858 11.1326 27.5595 11.2639 27.5082 11.3862C27.457 11.5085 27.382 11.6194 27.2875 11.7125L12.2875 26.7125C12.1955 26.8041 12.0862 26.8766 11.9661 26.926C11.846 26.9753 11.7173 27.0005 11.5875 27V27Z" stroke="#B30000" stroke-width="2" stroke-linecap="round" stroke-linejoin="round"/>
<path d="M17 8L24 15" stroke="#B30000" stroke-width="2" stroke-linecap="round" stroke-linejoin="round"/>
<path d="M20.5 11.5L8.5 23.5" stroke="#B30000" stroke-width="2" stroke-linecap="round" stroke-linejoin="round"/>
<path d="M11.9375 26.9375L5.0625 20.0625" stroke="#B30000" stroke-width="2" stroke-linecap="round" stroke-linejoin="round"/>
</svg>
